<?xml version="1.0" encoding="UTF-8"?>
<!-- Generated by Pixelmator Pro 3.6.17 -->
<svg width="150" height="380" viewBox="0 0 150 380" xmlns="http://www.w3.org/2000/svg">
    <path id="Path" fill="#d5d5d5" fill-rule="evenodd" stroke="none" d="M -15 0 L 165 0 L 165 380 L -15 380 L -15 0 Z"/>
    <g id="Group-copy-2">
        <path id="path1" fill="#151515" stroke="none" d="M -15.555632 165.348434 L -15.555632 90.127167 L 185.618378 14.90509 L 185.618378 90.127167 L -15.555632 165.348434 Z"/>
        <path id="path2" fill="#151515" stroke="none" d="M -15.555632 216.07869 L -15.555632 189.839081 L 185.618378 114.617004 L 185.618378 189.839081 L 50.177002 240.482742 L -15.555632 216.07869 Z"/>
        <path id="path3" fill="#151515" stroke="none" d="M 81.871605 327.730347 L 185.619553 366.524048 L 185.619553 291.301941 L 81.898994 252.519012 L 81.871605 327.730347 Z"/>
        <path id="path4" fill="#151515" stroke="none" d="M 212.884964 264.213684 L 212.884964 192.543549 C 212.884964 192.543549 251.569443 192.010208 251.569443 137.731598 C 251.569443 83.454193 204.181839 84.674561 204.181839 84.674561 L 204.181839 13.004425 C 204.181839 13.004425 319.61142 10.321808 319.61142 137.159729 C 319.61142 263.998474 212.884964 264.213684 212.884964 264.213684 Z"/>
    </g>
    <g id="Group-copy">
        <path id="path5" fill="#151515" stroke="none" d="M 72.459015 367.88446 L 64.629921 367.88446 L 56.800751 346.946106 L 64.629921 346.946106 L 72.459015 367.88446 Z"/>
        <path id="path6" fill="#151515" stroke="none" d="M 77.739059 367.88446 L 75.008018 367.88446 L 67.178848 346.946106 L 75.008018 346.946106 L 80.279053 361.042938 L 77.739059 367.88446 Z"/>
        <path id="path7" fill="#151515" stroke="none" d="M 89.359856 357.744141 L 93.39753 346.945984 L 85.568359 346.945984 L 81.531799 357.741302 L 89.359856 357.744141 Z"/>
        <path id="path8" fill="#151515" stroke="none" d="M 82.748993 344.108185 L 75.289505 344.108185 C 75.289505 344.108185 75.233994 340.081848 69.584633 340.081848 C 63.935394 340.081848 64.062416 345.014008 64.062416 345.014008 L 56.602928 345.014008 C 56.602928 345.014008 56.323719 333 69.525108 333 C 82.726585 333 82.748993 344.108185 82.748993 344.108185 Z"/>
    </g>
</svg>
