<?xml version="1.0" encoding="UTF-8"?>
<!-- Generated by Pixelmator Pro 3.6.17 -->
<svg width="165" height="380" viewBox="0 0 165 380" xmlns="http://www.w3.org/2000/svg">
    <path id="Path" fill="#d5d5d5" fill-rule="evenodd" stroke="none" d="M -8 0 L 172 0 L 172 380 L -8 380 L -8 0 Z"/>
    <g id="Group-copy-2">
        <path id="path1" fill="#151515" stroke="none" d="M -8.555632 165.348434 L -8.555632 90.127167 L 192.618378 14.90509 L 192.618378 90.127167 L -8.555632 165.348434 Z"/>
        <path id="path2" fill="#151515" stroke="none" d="M -8.555632 216.07869 L -8.555632 189.839081 L 192.618378 114.617004 L 192.618378 189.839081 L 57.177002 240.482742 L -8.555632 216.07869 Z"/>
        <path id="path3" fill="#151515" stroke="none" d="M 88.871605 327.730347 L 192.619553 366.524048 L 192.619553 291.301941 L 88.898994 252.519012 L 88.871605 327.730347 Z"/>
        <path id="path4" fill="#151515" stroke="none" d="M 219.884964 264.213684 L 219.884964 192.543549 C 219.884964 192.543549 258.569458 192.010208 258.569458 137.731598 C 258.569458 83.454193 211.181839 84.674561 211.181839 84.674561 L 211.181839 13.004425 C 211.181839 13.004425 326.61142 10.321808 326.61142 137.159729 C 326.61142 263.998474 219.884964 264.213684 219.884964 264.213684 Z"/>
    </g>
    <g id="Group-copy">
        <path id="path5" fill="#151515" stroke="none" d="M 79.459015 367.88446 L 71.629921 367.88446 L 63.800751 346.946106 L 71.629921 346.946106 L 79.459015 367.88446 Z"/>
        <path id="path6" fill="#151515" stroke="none" d="M 84.739059 367.88446 L 82.008018 367.88446 L 74.178848 346.946106 L 82.008018 346.946106 L 87.279053 361.042938 L 84.739059 367.88446 Z"/>
        <path id="path7" fill="#151515" stroke="none" d="M 96.359856 357.744141 L 100.39753 346.945984 L 92.568359 346.945984 L 88.531799 357.741302 L 96.359856 357.744141 Z"/>
        <path id="path8" fill="#151515" stroke="none" d="M 89.748993 344.108185 L 82.289505 344.108185 C 82.289505 344.108185 82.233994 340.081848 76.584633 340.081848 C 70.935394 340.081848 71.062416 345.014008 71.062416 345.014008 L 63.602928 345.014008 C 63.602928 345.014008 63.323719 333 76.525108 333 C 89.726585 333 89.748993 344.108185 89.748993 344.108185 Z"/>
    </g>
</svg>
