<?xml version="1.0" encoding="UTF-8"?>
<!-- Generated by Pixelmator Pro 3.6.17 -->
<svg width="180" height="380" viewBox="0 0 180 380" xmlns="http://www.w3.org/2000/svg">
    <path id="Path" fill="#d5d5d5" fill-rule="evenodd" stroke="none" d="M 0 0 L 180 0 L 180 380 L 0 380 L 0 0 Z"/>
    <g id="Group-copy-2">
        <path id="path1" fill="#151515" stroke="none" d="M -0.555632 165.348434 L -0.555632 90.127167 L 200.618378 14.90509 L 200.618378 90.127167 L -0.555632 165.348434 Z"/>
        <path id="path2" fill="#151515" stroke="none" d="M -0.555632 216.07869 L -0.555632 189.839081 L 200.618378 114.617004 L 200.618378 189.839081 L 65.177002 240.482742 L -0.555632 216.07869 Z"/>
        <path id="path3" fill="#151515" stroke="none" d="M 96.871605 327.730347 L 200.619553 366.524048 L 200.619553 291.301941 L 96.898994 252.519012 L 96.871605 327.730347 Z"/>
        <path id="path4" fill="#151515" stroke="none" d="M 227.884964 264.213684 L 227.884964 192.543549 C 227.884964 192.543549 266.569458 192.010208 266.569458 137.731598 C 266.569458 83.454193 219.181839 84.674561 219.181839 84.674561 L 219.181839 13.004425 C 219.181839 13.004425 334.61142 10.321808 334.61142 137.159729 C 334.61142 263.998474 227.884964 264.213684 227.884964 264.213684 Z"/>
    </g>
    <g id="Group-copy">
        <path id="path5" fill="#151515" stroke="none" d="M 87.459015 367.88446 L 79.629921 367.88446 L 71.800751 346.946106 L 79.629921 346.946106 L 87.459015 367.88446 Z"/>
        <path id="path6" fill="#151515" stroke="none" d="M 92.739059 367.88446 L 90.008018 367.88446 L 82.178848 346.946106 L 90.008018 346.946106 L 95.279053 361.042938 L 92.739059 367.88446 Z"/>
        <path id="path7" fill="#151515" stroke="none" d="M 104.359856 357.744141 L 108.39753 346.945984 L 100.568359 346.945984 L 96.531799 357.741302 L 104.359856 357.744141 Z"/>
        <path id="path8" fill="#151515" stroke="none" d="M 97.748993 344.108185 L 90.289505 344.108185 C 90.289505 344.108185 90.233994 340.081848 84.584633 340.081848 C 78.935394 340.081848 79.062416 345.014008 79.062416 345.014008 L 71.602928 345.014008 C 71.602928 345.014008 71.323715 333 84.525108 333 C 97.726585 333 97.748993 344.108185 97.748993 344.108185 Z"/>
    </g>
</svg>
