<?xml version="1.0" encoding="UTF-8"?>
<!-- Generated by Pixelmator Pro 3.6.17 -->
<svg width="270" height="380" viewBox="0 0 270 380" xmlns="http://www.w3.org/2000/svg">
    <path id="Path" fill="#d5d5d5" fill-rule="evenodd" stroke="none" d="M 0 0 L 270 0 L 270 380 L 0 380 L 0 0 Z"/>
    <g id="Group-copy-2">
        <path id="path1" fill="#151515" stroke="none" d="M -0.555632 145.52507 L -0.555632 72.685303 L 194.249191 -0.155243 L 194.249191 72.685303 L -0.555632 145.52507 Z"/>
        <path id="path2" fill="#151515" stroke="none" d="M -0.555632 194.6492 L -0.555632 169.240341 L 194.249191 96.399811 L 194.249191 169.240341 L 63.095901 218.280624 L -0.555632 194.6492 Z"/>
        <path id="path3" fill="#151515" stroke="none" d="M 93.787048 302.765961 L 194.250336 340.331451 L 194.250336 267.490875 L 93.813568 229.935822 L 93.787048 302.765961 Z"/>
        <path id="path4" fill="#151515" stroke="none" d="M 220.652512 241.260254 L 220.652512 171.859177 C 220.652512 171.859177 258.112244 171.342728 258.112244 118.782593 C 258.112244 66.223602 212.22493 67.405334 212.22493 67.405334 L 212.22493 -1.995728 C 212.22493 -1.995728 324 -4.593414 324 118.228821 C 324 241.051819 220.652512 241.260254 220.652512 241.260254 Z"/>
    </g>
    <g id="Group-copy">
        <path id="path5" fill="#151515" stroke="none" d="M 132.459015 367.88446 L 124.629921 367.88446 L 116.800751 346.946106 L 124.629921 346.946106 L 132.459015 367.88446 Z"/>
        <path id="path6" fill="#151515" stroke="none" d="M 137.739059 367.88446 L 135.008026 367.88446 L 127.178848 346.946106 L 135.008026 346.946106 L 140.279053 361.042938 L 137.739059 367.88446 Z"/>
        <path id="path7" fill="#151515" stroke="none" d="M 149.359848 357.744141 L 153.397537 346.945984 L 145.568359 346.945984 L 141.531799 357.741302 L 149.359848 357.744141 Z"/>
        <path id="path8" fill="#151515" stroke="none" d="M 142.748993 344.108185 L 135.289505 344.108185 C 135.289505 344.108185 135.233994 340.081848 129.584625 340.081848 C 123.935394 340.081848 124.062416 345.014008 124.062416 345.014008 L 116.602928 345.014008 C 116.602928 345.014008 116.323715 333 129.525116 333 C 142.726593 333 142.748993 344.108185 142.748993 344.108185 Z"/>
    </g>
</svg>
