<?xml version="1.0" encoding="UTF-8"?>
<!-- Generated by Pixelmator Pro 3.6.17 -->
<svg width="360" height="380" viewBox="0 0 360 380" xmlns="http://www.w3.org/2000/svg">
    <path id="Path" fill="#d5d5d5" fill-rule="evenodd" stroke="none" d="M 0 -190 L 360 -190 L 360 570 L 0 570 L 0 -190 Z"/>
    <g id="Group-copy-2">
        <path id="path1" fill="#151515" stroke="none" d="M 0.117473 119.360291 L 0.117473 35.739502 L 223.755402 -47.882172 L 223.755402 35.739502 L 0.117473 119.360291 Z"/>
        <path id="path2" fill="#151515" stroke="none" d="M 0.117473 175.755295 L 0.117473 146.585663 L 223.755402 62.963989 L 223.755402 146.585663 L 73.190086 202.884399 L 0.117473 175.755295 Z"/>
        <path id="path3" fill="#151515" stroke="none" d="M 108.423836 299.87442 L 223.756714 343 L 223.756714 259.378296 L 108.454285 216.264694 L 108.423836 299.87442 Z"/>
        <path id="path4" fill="#151515" stroke="none" d="M 254.066681 229.265259 L 254.066681 149.592117 C 254.066681 149.592117 297.070831 148.999222 297.070831 88.659637 C 297.070831 28.321381 244.391739 29.67804 244.391739 29.67804 L 244.391739 -49.995087 C 244.391739 -49.995087 372.710663 -52.977264 372.710663 88.023926 C 372.710663 229.025986 254.066681 229.265259 254.066681 229.265259 Z"/>
    </g>
    <g id="Group-copy">
        <path id="path5" fill="#151515" stroke="none" d="M 177.459015 367.88446 L 169.629929 367.88446 L 161.800751 346.946106 L 169.629929 346.946106 L 177.459015 367.88446 Z"/>
        <path id="path6" fill="#151515" stroke="none" d="M 182.739059 367.88446 L 180.008026 367.88446 L 172.178848 346.946106 L 180.008026 346.946106 L 185.279053 361.042938 L 182.739059 367.88446 Z"/>
        <path id="path7" fill="#151515" stroke="none" d="M 194.359848 357.744141 L 198.397537 346.945984 L 190.568359 346.945984 L 186.531799 357.741302 L 194.359848 357.744141 Z"/>
        <path id="path8" fill="#151515" stroke="none" d="M 187.748993 344.108185 L 180.289505 344.108185 C 180.289505 344.108185 180.233994 340.081848 174.584625 340.081848 C 168.935394 340.081848 169.062408 345.014008 169.062408 345.014008 L 161.602921 345.014008 C 161.602921 345.014008 161.323715 333 174.525116 333 C 187.726593 333 187.748993 344.108185 187.748993 344.108185 Z"/>
    </g>
</svg>
