<?xml version="1.0" encoding="UTF-8"?>
<!-- Generated by Pixelmator Pro 3.6.17 -->
<svg width="45" height="380" viewBox="0 0 45 380" xmlns="http://www.w3.org/2000/svg">
    <path id="Path" fill="#d5d5d5" fill-rule="evenodd" stroke="none" d="M -23 0 L 67 0 L 67 380 L -23 380 L -23 0 Z"/>
    <g id="Group-copy-2">
        <path id="path1" fill="#151515" stroke="none" d="M -66.555634 165.348434 L -66.555634 90.127167 L 134.618378 14.90509 L 134.618378 90.127167 L -66.555634 165.348434 Z"/>
        <path id="path2" fill="#151515" stroke="none" d="M -66.555634 216.07869 L -66.555634 189.839081 L 134.618378 114.617004 L 134.618378 189.839081 L -0.822997 240.482742 L -66.555634 216.07869 Z"/>
        <path id="path3" fill="#151515" stroke="none" d="M 30.871607 327.730347 L 134.619553 366.524048 L 134.619553 291.301941 L 30.898993 252.519012 L 30.871607 327.730347 Z"/>
        <path id="path4" fill="#151515" stroke="none" d="M 161.884964 264.213684 L 161.884964 192.543549 C 161.884964 192.543549 200.569443 192.010208 200.569443 137.731598 C 200.569443 83.454193 153.181839 84.674561 153.181839 84.674561 L 153.181839 13.004425 C 153.181839 13.004425 268.61142 10.321808 268.61142 137.159729 C 268.61142 263.998474 161.884964 264.213684 161.884964 264.213684 Z"/>
    </g>
    <g id="Group-copy">
        <path id="path5" fill="#151515" stroke="none" d="M 19.459015 367.88446 L 11.629924 367.88446 L 3.800749 346.946106 L 11.629924 346.946106 L 19.459015 367.88446 Z"/>
        <path id="path6" fill="#151515" stroke="none" d="M 24.739059 367.88446 L 22.00802 367.88446 L 14.178846 346.946106 L 22.00802 346.946106 L 27.279053 361.042938 L 24.739059 367.88446 Z"/>
        <path id="path7" fill="#151515" stroke="none" d="M 36.359852 357.744141 L 40.397533 346.945984 L 32.568356 346.945984 L 28.531797 357.741302 L 36.359852 357.744141 Z"/>
        <path id="path8" fill="#151515" stroke="none" d="M 29.748991 344.108185 L 22.289503 344.108185 C 22.289503 344.108185 22.233992 340.081848 16.584631 340.081848 C 10.935394 340.081848 11.062412 345.014008 11.062412 345.014008 L 3.602926 345.014008 C 3.602926 345.014008 3.323718 333 16.52511 333 C 29.726587 333 29.748991 344.108185 29.748991 344.108185 Z"/>
    </g>
</svg>
