<?xml version="1.0" encoding="UTF-8"?>
<!-- Generated by Pixelmator Pro 3.6.17 -->
<svg width="90" height="380" viewBox="0 0 90 380" xmlns="http://www.w3.org/2000/svg">
    <path id="Path" fill="#d5d5d5" fill-rule="evenodd" stroke="none" d="M 0 0 L 90 0 L 90 380 L 0 380 L 0 0 Z"/>
    <g id="Group-copy-2">
        <path id="path1" fill="#151515" stroke="none" d="M -43.555634 165.348434 L -43.555634 90.127167 L 157.618378 14.90509 L 157.618378 90.127167 L -43.555634 165.348434 Z"/>
        <path id="path2" fill="#151515" stroke="none" d="M -43.555634 216.07869 L -43.555634 189.839081 L 157.618378 114.617004 L 157.618378 189.839081 L 22.177002 240.482742 L -43.555634 216.07869 Z"/>
        <path id="path3" fill="#151515" stroke="none" d="M 53.871605 327.730347 L 157.619553 366.524048 L 157.619553 291.301941 L 53.898994 252.519012 L 53.871605 327.730347 Z"/>
        <path id="path4" fill="#151515" stroke="none" d="M 184.884964 264.213684 L 184.884964 192.543549 C 184.884964 192.543549 223.569443 192.010208 223.569443 137.731598 C 223.569443 83.454193 176.181839 84.674561 176.181839 84.674561 L 176.181839 13.004425 C 176.181839 13.004425 291.61142 10.321808 291.61142 137.159729 C 291.61142 263.998474 184.884964 264.213684 184.884964 264.213684 Z"/>
    </g>
    <g id="Group-copy">
        <path id="path5" fill="#151515" stroke="none" d="M 42.459015 367.88446 L 34.629925 367.88446 L 26.800749 346.946106 L 34.629925 346.946106 L 42.459015 367.88446 Z"/>
        <path id="path6" fill="#151515" stroke="none" d="M 47.739059 367.88446 L 45.008018 367.88446 L 37.178848 346.946106 L 45.008018 346.946106 L 50.279053 361.042938 L 47.739059 367.88446 Z"/>
        <path id="path7" fill="#151515" stroke="none" d="M 59.359852 357.744141 L 63.397533 346.945984 L 55.568356 346.945984 L 51.531796 357.741302 L 59.359852 357.744141 Z"/>
        <path id="path8" fill="#151515" stroke="none" d="M 52.748989 344.108185 L 45.289501 344.108185 C 45.289501 344.108185 45.233994 340.081848 39.584633 340.081848 C 33.935394 340.081848 34.062412 345.014008 34.062412 345.014008 L 26.602926 345.014008 C 26.602926 345.014008 26.323717 333 39.525112 333 C 52.726589 333 52.748989 344.108185 52.748989 344.108185 Z"/>
    </g>
</svg>
