<?xml version="1.0" encoding="UTF-8"?>
<!-- Generated by Pixelmator Pro 3.6.17 -->
<svg width="45" height="380" viewBox="0 0 45 380" xmlns="http://www.w3.org/2000/svg">
    <g id="Group">
        <path id="Path" fill="#929292" fill-rule="evenodd" stroke="none" d="M -68 0 L 112 0 L 112 380 L -68 380 L -68 0 Z"/>
        <g id="Group-copy-2">
            <path id="path1" fill="#d5d5d5" stroke="none" d="M 28.871607 327.730347 L 132.619553 366.524048 L 132.619553 291.301941 L 28.898993 252.519012 L 28.871607 327.730347 Z M -68.555634 189.839081 L -68.555634 216.07869 L -2.822997 240.482742 L 132.618378 189.839081 L 132.618378 114.617004 L -68.555634 189.839081 Z M -68.555634 90.127167 L -68.555634 165.348434 L 132.618378 90.127167 L 132.618378 14.90509 L -68.555634 90.127167 Z"/>
        </g>
    </g>
    <g id="Group-copy">
        <path id="path2" fill="#000000" stroke="none" d="M 21.333096 372.88446 L 16.197155 372.88446 L 11.06116 359.148743 L 16.197155 359.148743 L 21.333096 372.88446 Z"/>
        <path id="path3" fill="#151515" stroke="none" d="M 24.796843 372.88446 L 23.00526 372.88446 L 17.869267 359.148743 L 23.00526 359.148743 L 26.463097 368.396393 L 24.796843 372.88446 Z"/>
        <path id="path4" fill="#151515" stroke="none" d="M 32.420166 366.23233 L 35.068916 359.148651 L 29.932919 359.148651 L 27.284906 366.230469 L 32.420166 366.23233 Z"/>
        <path id="path5" fill="#151515" stroke="none" d="M 28.083393 357.287048 L 23.189917 357.287048 C 23.189917 357.287048 23.153502 354.645752 19.447479 354.645752 C 15.741539 354.645752 15.824863 357.881287 15.824863 357.881287 L 10.931386 357.881287 C 10.931386 357.881287 10.748223 350 19.408432 350 C 28.068697 350 28.083393 357.287048 28.083393 357.287048 Z"/>
    </g>
</svg>
