<?xml version="1.0" encoding="UTF-8"?>
<!-- Generated by Pixelmator Pro 3.6.17 -->
<svg width="180" height="380" viewBox="0 0 180 380" xmlns="http://www.w3.org/2000/svg">
    <path id="Path" fill="#929292" fill-rule="evenodd" stroke="none" d="M 0 0 L 180 0 L 180 380 L 0 380 L 0 0 Z"/>
    <g id="Group-copy-2">
        <path id="path1" fill="#d5d5d5" stroke="none" d="M 96.871605 327.730347 L 200.619553 366.524048 L 200.619553 291.301941 L 96.898994 252.519012 L 96.871605 327.730347 Z M -0.555632 189.839081 L -0.555632 216.07869 L 65.177002 240.482742 L 200.618378 189.839081 L 200.618378 114.617004 L -0.555632 189.839081 Z M -0.555632 90.127167 L -0.555632 165.348434 L 200.618378 90.127167 L 200.618378 14.90509 L -0.555632 90.127167 Z"/>
    </g>
    <path id="REGRANDY" fill="#646464" fill-rule="evenodd" stroke="none" d="M 172.464005 11.635986 L 170.070007 4.399994 L 172.175995 4.399994 L 173.526001 9.026001 L 173.561996 9.026001 L 174.912003 4.399994 L 176.837997 4.399994 L 174.444 11.635986 L 174.444 17 L 172.464005 17 Z M 163.662003 4.399994 L 166.686005 4.399994 C 167.670013 4.399994 168.40799 4.664001 168.899994 5.191986 C 169.391998 5.720001 169.638 6.493988 169.638 7.514008 L 169.638 13.885986 C 169.638 14.906006 169.391998 15.679993 168.899994 16.208008 C 168.40799 16.735992 167.670013 17 166.686005 17 L 163.662003 17 Z M 166.649994 15.200012 C 166.973999 15.200012 167.222992 15.104004 167.397003 14.911987 C 167.570999 14.720001 167.658005 14.40799 167.658005 13.976013 L 167.658005 7.424011 C 167.658005 6.992004 167.570999 6.679993 167.397003 6.488007 C 167.222992 6.29599 166.973999 6.200012 166.649994 6.200012 L 165.641998 6.200012 L 165.641998 15.200012 Z M 155.975998 4.399994 L 158.459991 4.399994 L 160.386002 11.941986 L 160.421997 11.941986 L 160.421997 4.399994 L 162.186005 4.399994 L 162.186005 17 L 160.152008 17 L 157.776001 7.802002 L 157.740005 7.802002 L 157.740005 17 L 155.975998 17 Z M 150.287994 4.399994 L 152.970001 4.399994 L 155.022003 17 L 153.041992 17 L 152.682007 14.497986 L 152.682007 14.533997 L 150.432007 14.533997 L 150.071991 17 L 148.235992 17 Z M 152.447998 12.824005 L 151.56601 6.596008 L 151.529999 6.596008 L 150.666 12.824005 Z M 141.503998 4.399994 L 144.438004 4.399994 C 145.458008 4.399994 146.201996 4.636993 146.669998 5.110992 C 147.138 5.584991 147.371994 6.313995 147.371994 7.298004 L 147.371994 8.071991 C 147.371994 9.380005 146.940002 10.208008 146.076004 10.556 L 146.076004 10.59201 C 146.556 10.735992 146.895004 11.029999 147.093002 11.473999 C 147.291 11.917999 147.389999 12.511993 147.389999 13.256012 L 147.389999 15.470001 C 147.389999 15.830017 147.402008 16.121002 147.425995 16.342987 C 147.449997 16.565002 147.509995 16.783997 147.606003 17 L 145.589996 17 C 145.518005 16.79599 145.470001 16.604004 145.445999 16.424011 C 145.421997 16.243988 145.410004 15.920013 145.410004 15.451996 L 145.410004 13.14801 C 145.410004 12.571991 145.317001 12.170013 145.130997 11.941986 C 144.945007 11.713989 144.624008 11.600006 144.167999 11.600006 L 143.483994 11.600006 L 143.483994 17 L 141.503998 17 Z M 144.203995 9.799988 C 144.600006 9.799988 144.897003 9.697998 145.095001 9.493988 C 145.292999 9.290009 145.391998 8.947998 145.391998 8.467987 L 145.391998 7.496002 C 145.391998 7.040009 145.311005 6.709991 145.149002 6.506012 C 144.987 6.302002 144.731995 6.200012 144.384003 6.200012 L 143.483994 6.200012 L 143.483994 9.799988 Z M 137.274002 17.179993 C 136.313995 17.179993 135.582001 16.907013 135.078003 16.360992 C 134.574005 15.815002 134.322006 15.032013 134.322006 14.011993 L 134.322006 7.388 C 134.322006 6.367981 134.574005 5.584991 135.078003 5.039001 C 135.582001 4.493011 136.313995 4.220001 137.274002 4.220001 C 138.234009 4.220001 138.966003 4.493011 139.470001 5.039001 C 139.973999 5.584991 140.225998 6.367981 140.225998 7.388 L 140.225998 8.467987 L 138.354004 8.467987 L 138.354004 7.261993 C 138.354004 6.43399 138.012009 6.019989 137.328003 6.019989 C 136.643997 6.019989 136.302002 6.43399 136.302002 7.261993 L 136.302002 14.156006 C 136.302002 14.972015 136.643997 15.380005 137.328003 15.380005 C 138.012009 15.380005 138.354004 14.972015 138.354004 14.156006 L 138.354004 11.690002 L 137.363998 11.690002 L 137.363998 9.890015 L 140.225998 9.890015 L 140.225998 14.011993 C 140.225998 15.032013 139.973999 15.815002 139.470001 16.360992 C 138.966003 16.907013 138.234009 17.179993 137.274002 17.179993 Z M 127.931999 4.399994 L 133.332001 4.399994 L 133.332001 6.200012 L 129.912003 6.200012 L 129.912003 9.529999 L 132.630005 9.529999 L 132.630005 11.329987 L 129.912003 11.329987 L 129.912003 15.200012 L 133.332001 15.200012 L 133.332001 17 L 127.931999 17 Z M 120.678001 4.399994 L 123.612 4.399994 C 124.632004 4.399994 125.375999 4.636993 125.844002 5.110992 C 126.312004 5.584991 126.545998 6.313995 126.545998 7.298004 L 126.545998 8.071991 C 126.545998 9.380005 126.114006 10.208008 125.25 10.556 L 125.25 10.59201 C 125.730003 10.735992 126.069 11.029999 126.266998 11.473999 C 126.465004 11.917999 126.564003 12.511993 126.564003 13.256012 L 126.564003 15.470001 C 126.564003 15.830017 126.576004 16.121002 126.599998 16.342987 C 126.624001 16.565002 126.683998 16.783997 126.779999 17 L 124.764 17 C 124.692001 16.79599 124.643997 16.604004 124.620003 16.424011 C 124.596001 16.243988 124.584 15.920013 124.584 15.451996 L 124.584 13.14801 C 124.584 12.571991 124.490997 12.170013 124.305 11.941986 C 124.118996 11.713989 123.798004 11.600006 123.342003 11.600006 L 122.657997 11.600006 L 122.657997 17 L 120.678001 17 Z M 123.377998 9.799988 C 123.774002 9.799988 124.070999 9.697998 124.268997 9.493988 C 124.467003 9.290009 124.566002 8.947998 124.566002 8.467987 L 124.566002 7.496002 C 124.566002 7.040009 124.485001 6.709991 124.322998 6.506012 C 124.160995 6.302002 123.905998 6.200012 123.557999 6.200012 L 122.657997 6.200012 L 122.657997 9.799988 Z"/>
</svg>
